<svg width="24" height="24" viewBox="0 0 24 24" fill="none" xmlns="http://www.w3.org/2000/svg">
<g id="icon/AI portrait">
<g id="Vector">
<path d="M17.5106 7.38496C17.6351 6.87168 18.3651 6.87168 18.4895 7.38496L18.832 8.79729C18.8764 8.98055 19.0195 9.12363 19.2028 9.16807L20.6151 9.51054C21.1284 9.635 21.1284 10.365 20.6151 10.4895L19.2028 10.8319C19.0195 10.8764 18.8764 11.0195 18.832 11.2027L18.4895 12.615C18.3651 13.1283 17.6351 13.1283 17.5106 12.615L17.1681 11.2027C17.1237 11.0195 16.9806 10.8764 16.7974 10.8319L15.385 10.4895C15.353 10.4817 15.3229 10.4715 15.2948 10.4593C14.8738 10.2761 14.9038 9.62722 15.385 9.51054L16.7974 9.16807C16.9806 9.12363 17.1237 8.98055 17.1681 8.79729L17.5106 7.38496Z" fill="white"/>
<path fill-rule="evenodd" clip-rule="evenodd" d="M11.2832 15.0283C10.1019 14.8067 8.89827 14.8067 7.71693 15.0283C7.12965 15.1385 6.65313 15.7508 6.65313 16.5282V16.7946C6.65313 17.0222 6.80137 17.1379 6.91048 17.1379H12.0897C12.1988 17.1379 12.347 17.0222 12.347 16.7946V16.5282C12.347 15.7508 11.8705 15.1385 11.2832 15.0283ZM7.4453 13.1916C8.80648 12.9361 10.1937 12.9361 11.5548 13.1916C12.9891 13.4607 14.0001 14.8986 14.0001 16.5282V16.7946C14.0001 17.9746 13.1778 19 12.0897 19H6.91048C5.82237 19 5.00007 17.9746 5.00007 16.7946V16.5282C5.00007 14.8986 6.01104 13.4607 7.4453 13.1916Z" fill="white"/>
<path fill-rule="evenodd" clip-rule="evenodd" d="M7.27727 1.82966C7.37135 2.28958 7.07477 2.73868 6.61485 2.83276C5.5256 3.05556 4.6994 3.48886 4.09417 4.0941C3.48893 4.69933 3.05563 5.52553 2.83283 6.61478C2.73875 7.0747 2.28965 7.37128 1.82973 7.2772C1.36981 7.18313 1.07324 6.73403 1.16731 6.27411C1.44451 4.91891 2.01121 3.77289 2.89209 2.89201C3.77296 2.01114 4.91898 1.44444 6.27418 1.16724C6.7341 1.07317 7.1832 1.36974 7.27727 1.82966ZM22.1633 15.6103C22.624 15.7004 22.9244 16.1469 22.8343 16.6077C22.3008 19.3342 20.6387 22.2553 17.1398 22.8384C16.6768 22.9156 16.2388 22.6028 16.1616 22.1397C16.0845 21.6767 16.3973 21.2387 16.8603 21.1616C19.3614 20.7447 20.6993 18.6658 21.1659 16.2812C21.256 15.8205 21.7026 15.5201 22.1633 15.6103ZM2.00007 15.5944C2.46951 15.5944 2.85007 15.975 2.85007 16.4444C2.85007 19.0649 4.53451 20.7417 6.61485 21.1672C7.07477 21.2613 7.37135 21.7104 7.27727 22.1703C7.1832 22.6303 6.7341 22.9268 6.27418 22.8328C3.46563 22.2583 1.15007 19.9351 1.15007 16.4444C1.15007 15.975 1.53063 15.5944 2.00007 15.5944Z" fill="white"/>
<path fill-rule="evenodd" clip-rule="evenodd" d="M9.50007 10.2C10.439 10.2 11.2001 9.43888 11.2001 8.5C11.2001 7.56112 10.439 6.8 9.50007 6.8C8.56119 6.8 7.80007 7.56112 7.80007 8.5C7.80007 9.43888 8.56119 10.2 9.50007 10.2ZM9.50007 12C11.4331 12 13.0001 10.433 13.0001 8.5C13.0001 6.567 11.4331 5 9.50007 5C7.56707 5 6.00007 6.567 6.00007 8.5C6.00007 10.433 7.56707 12 9.50007 12Z" fill="white"/>
<path d="M17.0001 2C17.0001 2.55228 16.5524 3 16.0001 3C15.4478 3 15.0001 2.55228 15.0001 2C15.0001 1.44772 15.4478 1 16.0001 1C16.5524 1 17.0001 1.44772 17.0001 2Z" fill="white"/>
<path d="M22.0001 4C22.0001 4.55228 21.5524 5 21.0001 5C20.4478 5 20.0001 4.55228 20.0001 4C20.0001 3.44772 20.4478 3 21.0001 3C21.5524 3 22.0001 3.44772 22.0001 4Z" fill="white"/>
<path d="M19.0001 16C19.0001 16.5523 18.5524 17 18.0001 17C17.4478 17 17.0001 16.5523 17.0001 16C17.0001 15.4477 17.4478 15 18.0001 15C18.5524 15 19.0001 15.4477 19.0001 16Z" fill="white"/>
</g>
</g>
</svg>
