<svg width="32" height="32" viewBox="0 0 32 32" fill="none" xmlns="http://www.w3.org/2000/svg">
<path d="M10.8477 23.3682C9.45602 21.9764 9.87067 19.625 11.6544 18.7932C11.8253 19.0339 12.0174 19.2642 12.233 19.4798C14.3135 21.5603 17.6865 21.5603 19.7669 19.4798C20.4106 18.8362 20.8548 18.0688 21.0999 17.2542C21.7263 15.1721 23.1596 13.4282 25.1301 12.5094L25.2914 12.4342C27.2395 11.5258 29.5477 11.9328 31.0677 13.4528C32.3108 14.6958 32.3108 16.73 31.0677 17.973L25.6726 23.3682C21.5957 27.445 14.9246 27.445 10.8477 23.3682Z" fill="#003773"/>
<path d="M19.767 11.9459C17.6865 9.86545 14.3135 9.86545 12.2331 11.9459C11.5894 12.5896 11.1452 13.3569 10.9001 14.1715C10.2737 16.2536 8.84047 17.9975 6.86992 18.9163L6.70863 18.9915C4.76051 19.8999 2.45226 19.4929 0.93229 17.973C-0.310763 16.7299 -0.310763 14.6957 0.93229 13.4527L6.32735 8.05763C10.4043 3.98072 17.0754 3.98072 21.1523 8.05763C22.544 9.44927 22.1294 11.8007 20.3456 12.6325C20.1747 12.3918 19.9827 12.1616 19.767 11.9459Z" fill="#003773"/>
<path d="M13.826 17.9359C15.0176 19.1275 16.9495 19.1275 18.1411 17.9359C19.3327 16.7443 19.3327 14.8124 18.1411 13.6208C16.9495 12.4292 15.0176 12.4292 13.826 13.6208C12.6344 14.8124 12.6344 16.7443 13.826 17.9359Z" fill="#0057B5"/>
</svg>
