<svg width="20" height="21" viewBox="0 0 20 21" fill="none" xmlns="http://www.w3.org/2000/svg">
<g id="message-2">
<path id="Vector" d="M6.66667 8.00016H13.3333M6.66667 11.3335H11.6667M7.5 15.5002H5C4.33696 15.5002 3.70107 15.2368 3.23223 14.7679C2.76339 14.2991 2.5 13.6632 2.5 13.0002V6.3335C2.5 5.67045 2.76339 5.03457 3.23223 4.56573C3.70107 4.09689 4.33696 3.8335 5 3.8335H15C15.663 3.8335 16.2989 4.09689 16.7678 4.56573C17.2366 5.03457 17.5 5.67045 17.5 6.3335V13.0002C17.5 13.6632 17.2366 14.2991 16.7678 14.7679C16.2989 15.2368 15.663 15.5002 15 15.5002H12.5L10 18.0002L7.5 15.5002Z" stroke="#797979" stroke-width="1.66667" stroke-linecap="round" stroke-linejoin="round"/>
</g>
</svg>
