<svg width="25" height="25" viewBox="0 0 25 25" fill="none" xmlns="http://www.w3.org/2000/svg">
<g id="microphone">
<path id="Vector" d="M5.5 10.5C5.5 12.3565 6.2375 14.137 7.55025 15.4497C8.86301 16.7625 10.6435 17.5 12.5 17.5M12.5 17.5C14.3565 17.5 16.137 16.7625 17.4497 15.4497C18.7625 14.137 19.5 12.3565 19.5 10.5M12.5 17.5V21.5M8.5 21.5H16.5M9.5 5.5C9.5 4.70435 9.81607 3.94129 10.3787 3.37868C10.9413 2.81607 11.7044 2.5 12.5 2.5C13.2956 2.5 14.0587 2.81607 14.6213 3.37868C15.1839 3.94129 15.5 4.70435 15.5 5.5V10.5C15.5 11.2956 15.1839 12.0587 14.6213 12.6213C14.0587 13.1839 13.2956 13.5 12.5 13.5C11.7044 13.5 10.9413 13.1839 10.3787 12.6213C9.81607 12.0587 9.5 11.2956 9.5 10.5V5.5Z" stroke="white" stroke-width="2" stroke-linecap="round" stroke-linejoin="round"/>
</g>
</svg>
